{"title":"Armin van Buuren - 24 - The Longest Day (Remix) Video @ VOB","uid":9270413,"size":188706816,"categoryP":"video","categoryS":"music_videos","magnet":"?xt=urn:btih:2f654721262dba34af94f1eacb4e3a6859fb8a36&amp;dn=Armin+van+Buuren+-+24+-+The+Longest+Day+%28Remix%29+Video+%40+VOB&amp;tr=udp%3A%2F%2Ftracker.openbittorrent.com%3A80&amp;tr=udp%3A%2F%2Fopen.demonii.com%3A1337&amp;tr=udp%3A%2F%2Ftracker.coppersurfer.tk%3A6969&amp;tr=udp%3A%2F%2Fexodus.desync.com%3A6969","seeders":1,"leechers":0,"uploader":"baby967","files":-1,"time":1385764877,"description":"  \n.\n  Artist................: Armin van Buuren\n\n  Title.................: 24 - The Longest Day (Armin van Buuren Remixes)\n\n  Date Of Release.......: 2013-11-29\n\n  Genre.................: Electronic, CLASSIC TRANCE\n\n  Style.................: Trance, Progressive, Uplifting, Vocal Trance\n\n  Format................: VOB\n\n  Total Time............: 03:28\n\n  Total Size............: ~ 179 Mb\n\n\n                       &lt;a href=&quot; http://bayimg.com/gADFGaAfd&quot; rel=&quot;nofollow&quot; target=&quot;_NEW&quot;&gt; http://bayimg.com/gADFGaAfd&lt;/a&gt;\n\n\n\n  Armin van Buuren - 24_The Longest Day (Armin van Buuren Remix) VOB24 - The Longest Day (Armin van Buuren Remix).VOB\n  General\n    \n    Format : MPEG-PS\n    File size : 180 MiB\n    Duration : 3mn 28s\n    Overall bit rate mode : Variable\n    Overall bit rate : 7 231 Kbps\n  Video #224\n    ID : 224 (0xE0)\n    Format : MPEG Video\n    Format version : Version 2\n    Format profile : Main@Main\n    Format settings, BVOP : Yes\n    Format settings, Matrix : Default\n    Format settings, GOP : M=3, N=13\n    Duration : 3mn 28s\n    Bit rate mode : Variable\n    Bit rate : 6 895 Kbps\n    Maximum bit rate : 9 608 Kbps\n    Width : 720 pixels\n    Height : 576 pixels\n    Display aspect ratio : 4:3\n    Frame rate : 25.000 fps\n    Standard : PAL\n    Color space : YUV\n    Chroma subsampling : 4:2:0\n    Bit depth : 8 bits\n    Scan type : Progressive\n    Compression mode : Lossy\n    Bits/(Pixel*Frame) : 0.665\n    Time code of first frame : 00:00:00:00\n    Time code source : Group of pictures header\n    Stream size : 172 MiB (95%)\n  Audio #189-128\n    ID : 189 (0xBD)-128 (0x80)\n    Format : AC-3\n    Format/Info : Audio Coding 3\n    Mode extension : CM (complete main)\n    Format settings, Endianness : Big\n    Muxing mode : DVD-Video\n    Duration : 3mn 28s\n    Bit rate mode : Constant\n    Bit rate : 192 Kbps\n    Channel count : 2 channels\n    Channel positions : Front: L R\n    Sampling rate : 48.0 KHz\n    Bit depth : 16 bits\n    Compression mode : Lossy\n    Stream size : 4.78 MiB (3%)\n","torrent":{"xt":"urn:btih:2f654721262dba34af94f1eacb4e3a6859fb8a36","amp;dn":"Armin+van+Buuren+-+24+-+The+Longest+Day+%28Remix%29+Video+%40+VOB","amp;tr":["udp%3A%2F%2Ftracker.openbittorrent.com%3A80","udp%3A%2F%2Fopen.demonii.com%3A1337","udp%3A%2F%2Ftracker.coppersurfer.tk%3A6969","udp%3A%2F%2Fexodus.desync.com%3A6969"],"infoHash":"2f654721262dba34af94f1eacb4e3a6859fb8a36","infoHashBuffer":{"type":"Buffer","data":[47,101,71,33,38,45,186,52,175,148,241,234,203,78,58,104,89,251,138,54]},"announce":[],"urlList":[]}}